{
	"asset":{
		"generator":"Khronos glTF Blender I/O v4.4.56",
		"version":"2.0"
	},
	"scene":0,
	"scenes":[
		{
			"name":"Scene",
			"nodes":[
				0,
				1
			]
		}
	],
	"nodes":[
		{
			"mesh":0,
			"name":"Object_2",
			"scale":[
				0.02000000886619091,
				0.02000000886619091,
				0.02000000886619091
			]
		},
		{
			"mesh":1,
			"name":"Object_3",
			"scale":[
				0.02000000886619091,
				0.02000000886619091,
				0.02000000886619091
			]
		}
	],
	"materials":[
		{
			"doubleSided":true,
			"name":"Default",
			"pbrMetallicRoughness":{
				"metallicFactor":0,
				"roughnessFactor":0.8999999761581421
			}
		},
		{
			"doubleSided":true,
			"name":"default",
			"pbrMetallicRoughness":{
				"baseColorFactor":[
					0.800000011920929,
					0.800000011920929,
					0.800000011920929,
					1
				],
				"metallicFactor":0,
				"roughnessFactor":0.8999999761581421
			}
		}
	],
	"meshes":[
		{
			"name":"Object_0",
			"primitives":[
				{
					"attributes":{
						"POSITION":0,
						"NORMAL":1,
						"TEXCOORD_0":2
					},
					"indices":3,
					"material":0
				}
			]
		},
		{
			"name":"Object_1",
			"primitives":[
				{
					"attributes":{
						"POSITION":4,
						"NORMAL":5,
						"TEXCOORD_0":6
					},
					"indices":7,
					"material":1
				}
			]
		}
	],
	"accessors":[
		{
			"bufferView":0,
			"componentType":5126,
			"count":1922,
			"max":[
				33.56470489501953,
				79.0065689086914,
				33.56470489501953
			],
			"min":[
				-33.5647087097168,
				58.93855285644531,
				-33.564720153808594
			],
			"type":"VEC3"
		},
		{
			"bufferView":1,
			"componentType":5126,
			"count":1922,
			"type":"VEC3"
		},
		{
			"bufferView":2,
			"componentType":5126,
			"count":1922,
			"type":"VEC2"
		},
		{
			"bufferView":3,
			"componentType":5123,
			"count":10656,
			"type":"SCALAR"
		},
		{
			"bufferView":4,
			"componentType":5126,
			"count":6534,
			"max":[
				82.29399871826172,
				59.873016357421875,
				47.9283561706543
			],
			"min":[
				-71.89253234863281,
				0,
				-47.92836380004883
			],
			"type":"VEC3"
		},
		{
			"bufferView":5,
			"componentType":5126,
			"count":6534,
			"type":"VEC3"
		},
		{
			"bufferView":6,
			"componentType":5126,
			"count":6534,
			"type":"VEC2"
		},
		{
			"bufferView":7,
			"componentType":5123,
			"count":36456,
			"type":"SCALAR"
		}
	],
	"bufferViews":[
		{
			"buffer":0,
			"byteLength":23064,
			"byteOffset":0,
			"target":34962
		},
		{
			"buffer":0,
			"byteLength":23064,
			"byteOffset":23064,
			"target":34962
		},
		{
			"buffer":0,
			"byteLength":15376,
			"byteOffset":46128,
			"target":34962
		},
		{
			"buffer":0,
			"byteLength":21312,
			"byteOffset":61504,
			"target":34963
		},
		{
			"buffer":0,
			"byteLength":78408,
			"byteOffset":82816,
			"target":34962
		},
		{
			"buffer":0,
			"byteLength":78408,
			"byteOffset":161224,
			"target":34962
		},
		{
			"buffer":0,
			"byteLength":52272,
			"byteOffset":239632,
			"target":34962
		},
		{
			"buffer":0,
			"byteLength":72912,
			"byteOffset":291904,
			"target":34963
		}
	],
	"buffers":[
		{
			"byteLength":364816,
			"uri":"teapot.bin"
		}
	]
}
